<svg xmlns="http://www.w3.org/2000/svg" fill="none" viewBox="0 0 348 348"><path stroke="#000" stroke-width="2" d="M5.08 5.78h336.91v337.67H5.08z"/><path stroke="#000" stroke-width="2" d="M282.73 40.55c0-8.37 6.97-15.16 15.56-15.16 4.13 0 8.09 1.6 11 4.44a14.97 14.97 0 0 1 4.56 10.72c0 8.38-6.96 15.17-15.56 15.17-8.59 0-15.56-6.8-15.56-15.17z"/><path stroke="#000" stroke-linecap="square" stroke-width="3.31" d="M42.5 43.89h193.41V237.3H42.5z"/><path stroke="#000" stroke-linecap="square" stroke-width="3.55" d="M34.88 271.66h85.25v40.29H34.88zm100.26 0h85.25v40.29h-85.25zm100.25 0h85.25v40.29h-85.25z"/><path fill="#000" stroke-width=".86" d="M58.31 295.03c0 2.99 1.26 4.45 3.77 4.45 2.41 0 3.76-1.37 3.76-3.93 0-2.2-1.53-3.37-3.03-4.54h.02c-1.12-.86-2.24-1.75-2.24-2.91 0-1.19.53-1.71 1.49-1.71 1 0 1.48.68 1.48 2.18v.32c0 .46.36.82.82.82h.64c.45 0 .82-.36.82-.82v-.32c0-2.9-1.3-4.47-3.76-4.47-2.42 0-3.77 1.49-3.77 4.06 0 2.26 1.58 3.5 3.08 4.68v-.02c1.12.86 2.17 1.7 2.17 2.78 0 1.2-.53 1.62-1.48 1.62-.32 0-.71-.05-.96-.3-.32-.27-.53-.8-.53-1.9v-.29a.83.83 0 0 0-.82-.82h-.64a.82.82 0 0 0-.82.82zm11.37-4.33v-5.75a.82.82 0 0 0-.82-.82h-.64a.82.82 0 0 0-.82.82v13.73c0 .45.36.82.82.82h.64c.46 0 .82-.37.82-.82v-5.73h2.53v5.73c0 .45.37.82.82.82h.64c.46 0 .82-.37.82-.82v-13.73a.82.82 0 0 0-.82-.82h-.64a.82.82 0 0 0-.82.82v5.75zm8.91-5.75a.83.83 0 0 0-.82-.82h-.64a.82.82 0 0 0-.82.82v13.73c0 .45.36.82.82.82h.64c.43 0 .82-.37.82-.82zm8.89 9.9c0-1.19-.32-2.13-.98-2.83l.18-.18c.71-.71.96-1.85.96-3.27 0-3.05-.98-4.47-3.78-4.47h-2.88a.82.82 0 0 0-.82.83v13.72c0 .46.37.83.82.83h.64c.43 0 .8-.37.8-.83v-5.58h1.03c1.11 0 1.75.64 1.75 1.78v3.8c0 .46.37.83.82.83h.64c.46 0 .82-.37.82-.83zm-5.06-8.46h1.44c1.18 0 1.52.63 1.52 2.18 0 1.56-.66 2.2-1.93 2.2h-1.03zm6.8 8.64c0 1.8.5 2.85 1.21 3.56.76.73 1.71.9 2.53.9.85 0 1.8-.17 2.56-.9.7-.71 1.18-1.76 1.18-3.56v-6.46c0-2.9-1.23-4.44-3.74-4.44-2.48 0-3.74 1.57-3.74 4.44zm2.29-6.46c0-1.48.45-2.18 1.45-2.18.99 0 1.46.66 1.46 2.18v6.46c0 1.55-.5 2.21-1.46 2.21-.98 0-1.45-.7-1.45-2.21z" aria-label="SHIRO"/><path fill="#000" stroke-width=".86" d="M159.14 284.79a.85.85 0 0 0-.8-.66h-.5c-.37 0-.73.3-.8.66l-1.19 6.93-1.05-6.9a.85.85 0 0 0-.82-.7h-.66a.8.8 0 0 0-.8.94l2.24 13.75c.07.37.4.69.8.69h.5c.36 0 .73-.3.8-.66l1.23-7.28 1.2 7.28c.07.36.44.66.8.66h.53c.39 0 .75-.32.82-.69l2.19-13.75a.82.82 0 0 0-.82-.93h-.66c-.4 0-.78.3-.82.68l-1.03 6.87zm10.06 14.07c.09.34.45.64.8.64h.65a.8.8 0 0 0 .8-1l-3.14-13.73c-.07-.35-.46-.64-.8-.64h-.5c-.35 0-.71.3-.8.64l-2.08 8.91-1.1 4.84a.8.8 0 0 0 .8.98h.67c.34 0 .7-.3.8-.64l.8-3.56h2.32zm-1.94-9.46c.43 1.93.38 2.55.63 3.64h-1.27zm12.14 8.66a.82.82 0 0 0-.82-.82h-3.4v-12.3a.81.81 0 0 0-.8-.81h-.66a.82.82 0 0 0-.82.82v13.73c0 .45.36.82.82.82h4.86c.45 0 .82-.37.82-.82zm-1.18-12.5c0 .46.37.83.82.83h1.85v12.26c0 .46.37.83.82.83h.62c.45 0 .82-.37.82-.83V286.4h1.87c.45 0 .82-.37.82-.83v-.63a.82.82 0 0 0-.82-.83h-5.98a.82.82 0 0 0-.82.83zm10.02-1.43a.82.82 0 0 0-.82.82v13.73c0 .45.37.82.82.82h4.93c.45 0 .82-.37.82-.82v-.62a.82.82 0 0 0-.82-.82h-3.5v-4.31h2.88c.46 0 .82-.36.82-.82v-.62a.82.82 0 0 0-.82-.82h-2.87v-4.28h3.49c.45 0 .82-.37.82-.83v-.61a.82.82 0 0 0-.82-.82zm14.61 10.72c0-1.19-.32-2.13-.98-2.83l.18-.18c.7-.71.96-1.85.96-3.27 0-3.05-.98-4.47-3.79-4.47h-2.87a.82.82 0 0 0-.82.83v13.72c0 .46.36.83.82.83h.64c.43 0 .8-.37.8-.83v-5.58h1.02c1.12 0 1.76.64 1.76 1.78v3.8c0 .46.36.83.82.83h.64c.45 0 .82-.37.82-.83zm-5.06-8.46h1.43c1.19 0 1.53.63 1.53 2.18 0 1.56-.66 2.2-1.94 2.2h-1.02z" aria-label="WALTER"/><path fill="#000" stroke-width=".74" d="M247.33 285.17a.7.7 0 0 0-.7.7v11.88c0 .39.3.7.7.7h4.26a.7.7 0 0 0 .71-.7v-.54a.7.7 0 0 0-.71-.7h-3.02v-3.73h2.49a.7.7 0 0 0 .7-.71v-.53a.7.7 0 0 0-.7-.71h-2.49v-3.71h3.02a.7.7 0 0 0 .71-.71v-.53a.7.7 0 0 0-.71-.71zm8.27.53a.78.78 0 0 0-.69-.55h-.55c-.5 0-.8.41-.69.86l2.8 11.87c.06.32.37.56.69.56h.41c.3 0 .62-.24.7-.56l2.8-11.87a.7.7 0 0 0-.7-.86h-.57c-.3 0-.63.25-.69.55l-1.75 7.51zm8.5.18c0-.4-.34-.71-.72-.71h-.55a.7.7 0 0 0-.71.7v11.88c0 .39.32.7.71.7h.55c.38 0 .71-.31.71-.7zm6.81 11.33a.7.7 0 0 0-.7-.7h-2.94v-10.63a.7.7 0 0 0-.7-.71H266a.7.7 0 0 0-.7.7v11.88c0 .39.31.7.7.7h4.2a.7.7 0 0 0 .71-.7zm5.31-2.61c0 2.57 1.08 3.84 3.25 3.84 2.09 0 3.25-1.19 3.25-3.4 0-1.9-1.32-2.91-2.62-3.92h.02c-.97-.75-1.93-1.52-1.93-2.52 0-1.03.45-1.48 1.28-1.48.87 0 1.28.59 1.28 1.9v.27c0 .4.32.7.7.7h.56a.7.7 0 0 0 .71-.7V289c0-2.5-1.12-3.86-3.25-3.86-2.1 0-3.25 1.28-3.25 3.5 0 1.96 1.36 3.02 2.66 4.05v-.02c.96.75 1.87 1.48 1.87 2.4 0 1.05-.45 1.4-1.28 1.4-.28 0-.61-.04-.83-.25-.28-.24-.45-.7-.45-1.64v-.26c0-.39-.34-.7-.71-.7h-.56a.7.7 0 0 0-.7.7zm9.82-3.75v-4.97a.7.7 0 0 0-.7-.71h-.56a.7.7 0 0 0-.71.7v11.88c0 .39.32.7.71.7h.55a.7.7 0 0 0 .71-.7v-4.95h2.19v4.95c0 .39.32.7.71.7h.55a.7.7 0 0 0 .71-.7v-11.87a.7.7 0 0 0-.7-.71h-.56a.7.7 0 0 0-.71.7v4.98zm7.7-4.97c0-.4-.33-.71-.7-.71h-.56a.7.7 0 0 0-.71.7v11.88c0 .39.32.7.71.7h.55c.38 0 .71-.31.71-.7zm7.69 8.55c0-1.02-.27-1.83-.85-2.44l.16-.16c.61-.61.83-1.6.83-2.82 0-2.64-.85-3.86-3.27-3.86h-2.49a.7.7 0 0 0-.7.7v11.88c0 .39.3.7.7.7h.55a.7.7 0 0 0 .7-.7v-4.83h.88c.97 0 1.52.55 1.52 1.53v3.3c0 .39.32.7.71.7h.55a.7.7 0 0 0 .71-.7zm-4.38-7.31h1.25c1.02 0 1.32.55 1.32 1.9 0 1.33-.57 1.88-1.68 1.88h-.89zm5.89 7.48c0 1.55.43 2.46 1.04 3.07.65.63 1.48.79 2.2.79.72 0 1.55-.16 2.2-.8.61-.6 1.03-1.51 1.03-3.07v-5.58c0-2.5-1.07-3.84-3.24-3.84-2.15 0-3.23 1.36-3.23 3.84zm1.97-5.59c0-1.28.4-1.9 1.26-1.9.85 0 1.26.58 1.26 1.9v5.58c0 1.34-.43 1.91-1.26 1.91-.85 0-1.26-.6-1.26-1.9z" aria-label="EVIL SHIRO"/><path stroke="#000" stroke-linecap="square" stroke-width="3.09" d="M91.13 127.02h96.14v96.14H91.13z"/><path fill="#000" stroke-width="1.11" d="M95.53 62.58a1.1 1.1 0 0 0-1.04-.86h-.65c-.47 0-.95.38-1.04.86l-1.53 8.99-1.36-8.96a1.1 1.1 0 0 0-1.07-.9h-.86c-.68 0-1.12.57-1.03 1.22l2.9 17.84c.09.47.53.89 1.03.89h.65c.48 0 .95-.39 1.04-.86l1.6-9.44 1.56 9.44c.1.47.57.86 1.04.86h.68c.5 0 .98-.42 1.06-.89l2.84-17.84a1.07 1.07 0 0 0-1.06-1.21h-.86c-.5 0-1 .38-1.06.89l-1.34 8.9zm11.07 7.66v-7.46c0-.59-.47-1.06-1.06-1.06h-.83c-.59 0-1.06.47-1.06 1.06V80.6c0 .6.47 1.07 1.06 1.07h.83c.6 0 1.07-.48 1.07-1.07v-7.42h3.28v7.42c0 .6.47 1.07 1.06 1.07h.83c.6 0 1.07-.48 1.07-1.07V62.8c0-.6-.48-1.07-1.07-1.07h-.83c-.59 0-1.06.47-1.06 1.06v7.46zm8.72 5.62c0 2.34.65 3.7 1.57 4.61a4.57 4.57 0 0 0 3.28 1.19 4.6 4.6 0 0 0 3.31-1.19c.92-.91 1.54-2.27 1.54-4.61v-8.37c0-3.76-1.6-5.77-4.85-5.77-3.22 0-4.85 2.04-4.85 5.77zm2.96-8.37c0-1.93.59-2.84 1.9-2.84 1.26 0 1.88.86 1.88 2.84v8.37c0 2.01-.65 2.87-1.89 2.87-1.27 0-1.9-.92-1.9-2.87zm11.81-4.71c0-.59-.47-1.06-1.07-1.06h-.82c-.57 0-1.04.47-1.04 1.06v2.31c0 .6.47 1.07 1.04 1.07h.82c.6 0 1.07-.48 1.07-1.07zm1.11 13.08c0 3.87 1.64 5.77 4.89 5.77 3.14 0 4.88-1.78 4.88-5.09 0-2.87-1.98-4.38-3.93-5.89h.03c-1.45-1.12-2.9-2.28-2.9-3.78 0-1.54.68-2.22 1.92-2.22 1.3 0 1.92.88 1.92 2.84v.41c0 .6.48 1.07 1.07 1.07h.83c.59 0 1.06-.48 1.06-1.07v-.41c0-3.76-1.69-5.8-4.88-5.8-3.14 0-4.88 1.92-4.88 5.26 0 2.93 2.04 4.53 4 6.07v-.03c1.44 1.12 2.8 2.22 2.8 3.6 0 1.58-.68 2.1-1.92 2.1-.41 0-.92-.05-1.24-.38-.42-.35-.68-1.03-.68-2.45v-.39c0-.59-.5-1.06-1.07-1.06h-.83c-.59 0-1.06.47-1.06 1.06zm17.92-12.28c0 .6.47 1.07 1.06 1.07h2.4v15.91c0 .6.47 1.07 1.06 1.07h.8c.6 0 1.07-.48 1.07-1.07V64.65h2.42c.6 0 1.07-.48 1.07-1.07v-.83c0-.59-.48-1.06-1.07-1.06h-7.75c-.59 0-1.06.47-1.06 1.06zm13.76 6.66v-7.46c0-.59-.47-1.06-1.06-1.06h-.83c-.6 0-1.07.47-1.07 1.06V80.6c0 .6.48 1.07 1.07 1.07h.83c.59 0 1.06-.48 1.06-1.07v-7.42h3.29v7.42c0 .6.47 1.07 1.06 1.07h.83c.6 0 1.06-.48 1.06-1.07V62.8c0-.6-.47-1.07-1.06-1.07h-.83c-.59 0-1.06.47-1.06 1.06v7.46zm16.76 10.59c.12.44.6.83 1.04.83h.86c.7 0 1.18-.62 1.03-1.3l-4.08-17.81c-.09-.45-.6-.83-1.04-.83h-.65c-.44 0-.91.38-1.03.83l-2.7 11.56-1.41 6.28c-.15.68.32 1.27 1.03 1.27h.86c.44 0 .92-.39 1.03-.83l1.04-4.62h3.02zm-2.51-12.28c.56 2.52.5 3.32.83 4.74h-1.66zm4.46-4.97c0 .6.47 1.07 1.06 1.07h2.4v15.91c0 .6.47 1.07 1.07 1.07h.8c.59 0 1.06-.48 1.06-1.07V64.65h2.42c.6 0 1.07-.48 1.07-1.07v-.83c0-.59-.47-1.06-1.07-1.06h-7.75c-.59 0-1.06.47-1.06 1.06z" aria-label="WHO'S THAT"/><path fill="#000" stroke-width="1.07" d="M89.39 102.96c0 3.78 1.57 5.62 4.7 5.62 3.03 0 4.7-1.73 4.7-4.96 0-2.8-1.9-4.26-3.78-5.73h.02c-1.4-1.1-2.79-2.22-2.79-3.69 0-1.5.66-2.16 1.85-2.16 1.26 0 1.86.87 1.86 2.77v.4c0 .58.45 1.04 1.02 1.04h.8c.57 0 1.03-.46 1.03-1.04v-.4c0-3.66-1.63-5.65-4.7-5.65-3.03 0-4.71 1.87-4.71 5.13 0 2.85 1.97 4.4 3.85 5.9v-.02c1.4 1.1 2.7 2.16 2.7 3.51 0 1.53-.65 2.05-1.85 2.05-.4 0-.88-.06-1.2-.38-.4-.34-.65-1-.65-2.39v-.37c0-.58-.48-1.04-1.03-1.04h-.8c-.56 0-1.02.46-1.02 1.04zm14.21-5.47v-7.26c0-.58-.45-1.04-1.02-1.04h-.8c-.57 0-1.03.46-1.03 1.04v17.34c0 .58.46 1.04 1.03 1.04h.8c.57 0 1.02-.46 1.02-1.04v-7.23h3.17v7.23c0 .58.45 1.04 1.02 1.04h.8c.57 0 1.03-.46 1.03-1.04V90.23c0-.58-.46-1.04-1.03-1.04h-.8c-.57 0-1.02.46-1.02 1.04v7.26zm11.14-7.26c0-.58-.49-1.04-1.03-1.04h-.8c-.57 0-1.02.46-1.02 1.04v17.34c0 .58.45 1.04 1.02 1.04h.8c.54 0 1.03-.46 1.03-1.04zm11.12 12.5a5 5 0 0 0-1.23-3.57l.23-.23c.89-.9 1.2-2.34 1.2-4.12 0-3.86-1.23-5.65-4.73-5.65h-3.6c-.57 0-1.02.46-1.02 1.04v17.34c0 .58.45 1.04 1.02 1.04h.8c.54 0 1-.46 1-1.04v-7.06h1.28c1.4 0 2.2.81 2.2 2.25v4.81c0 .58.46 1.04 1.03 1.04h.8c.56 0 1.02-.46 1.02-1.04zm-6.33-10.69h1.8c1.48 0 1.9.8 1.9 2.77 0 1.96-.82 2.76-2.42 2.76h-1.28zm8.51 10.92c0 2.28.63 3.6 1.51 4.5a4.38 4.38 0 0 0 3.17 1.15 4.4 4.4 0 0 0 3.19-1.15c.88-.9 1.48-2.22 1.48-4.5v-8.15c0-3.66-1.54-5.62-4.67-5.62-3.11 0-4.68 1.99-4.68 5.62zm2.85-8.15c0-1.88.57-2.77 1.83-2.77 1.22 0 1.82.84 1.82 2.77v8.15c0 1.96-.63 2.8-1.82 2.8-1.23 0-1.83-.9-1.83-2.8zm14.1 13.79c.42 0 .88-.37 1-.83l.93-6.4v6.2c0 .58.46 1.04 1.03 1.04h.8c.57 0 1.03-.46 1.03-1.04V90.23c0-.58-.46-1.04-1.03-1.04h-.86c-.42 0-.9.37-1 .8l-2.22 11.62L142.42 90a1.06 1.06 0 0 0-.97-.81h-.86c-.57 0-1.02.46-1.02 1.04v17.34c0 .58.45 1.04 1.02 1.04h.8c.54 0 1.03-.46 1.03-1.04v-6.25l.97 6.48c.08.43.54.8.97.8zm7.28-5.64c0 2.28.62 3.6 1.5 4.5a4.38 4.38 0 0 0 3.17 1.15 4.4 4.4 0 0 0 3.2-1.15c.88-.9 1.48-2.22 1.48-4.5v-8.15c0-3.66-1.54-5.62-4.68-5.62-3.1 0-4.67 1.99-4.67 5.62zm2.85-8.15c0-1.88.57-2.77 1.82-2.77 1.23 0 1.83.84 1.83 2.77v8.15c0 1.96-.63 2.8-1.83 2.8-1.22 0-1.82-.9-1.82-2.8zm17.14 13.79c.57 0 1.03-.45 1.03-1.03V90.23c0-.58-.46-1.04-1.03-1.04h-.8c-.57 0-1.02.46-1.02 1.04v9.5l-3.97-9.9c-.11-.32-.57-.64-.94-.64h-.68c-.54 0-1.03.46-1.03 1.04v17.34c0 .58.49 1.04 1.03 1.04h.83c.54 0 1.02-.46 1.02-1.04v-9.5l3.97 9.9c.11.32.6.64.94.64zm14.34-5.03c0-3.09.72-2.77 2.58-5.77.45-.77.88-1.9.88-3.28 0-1.41-.34-2.6-.94-3.57a3.85 3.85 0 0 0-3.25-1.79c-2.83 0-4.22 2.08-4.22 5.5v.38c0 .57.45 1.04 1.02 1.04h.8c.57 0 1.03-.47 1.03-1.04v-.38c0-1.03.17-1.78.45-2.19.2-.31.49-.46.92-.46.37 0 .68.2.91.52.29.43.43 1.15.43 1.99 0 .83-.2 1.38-.46 1.84-.28.46-.54.87-.83 1.27-.82 1.3-2.16 2.7-2.16 5.45v.49c0 .57.45 1.03 1.02 1.03h.8c.54 0 1.03-.46 1.03-1.03zm0 2.88c0-.58-.48-1.04-1.02-1.04h-.82c-.55 0-1.03.46-1.03 1.04v1.1c0 .57.48 1.03 1.03 1.03h.82c.54 0 1.03-.46 1.03-1.04z" aria-label="SHIROMON ?"/></svg>